<svg width="25" height="12" viewBox="0 0 25 12" fill="none" xmlns="http://www.w3.org/2000/svg">
<path fill-rule="evenodd" clip-rule="evenodd" d="M3.58944 -0.000183105H18.4106C19.6587 -0.000183105 20.1113 0.129773 20.5676 0.373803C21.0239 0.617833 21.382 0.975937 21.626 1.43223C21.87 1.88853 22 2.34113 22 3.58926V7.91038C22 9.1585 21.87 9.6111 21.626 10.0674C21.382 10.5237 21.0239 10.8818 20.5676 11.1258C20.1113 11.3699 19.6587 11.4998 18.4106 11.4998H3.58944C2.34131 11.4998 1.88871 11.3699 1.43242 11.1258C0.97612 10.8818 0.618016 10.5237 0.373986 10.0674C0.129956 9.6111 0 9.1585 0 7.91038V3.58926C0 2.34113 0.129956 1.88853 0.373986 1.43223C0.618016 0.975937 0.97612 0.617833 1.43242 0.373803C1.88871 0.129773 2.34131 -0.000183105 3.58944 -0.000183105ZM3.58944 0.999817C2.60246 0.999817 2.2579 1.06635 1.90401 1.25562C1.62199 1.40645 1.40663 1.6218 1.2558 1.90383C1.06654 2.25772 1 2.60228 1 3.58926V7.91038C1 8.89736 1.06654 9.24191 1.2558 9.5958C1.40663 9.87783 1.62199 10.0932 1.90401 10.244C2.2579 10.4333 2.60246 10.4998 3.58944 10.4998H18.4106C19.3975 10.4998 19.7421 10.4333 20.096 10.244C20.378 10.0932 20.5934 9.87783 20.7442 9.5958C20.9335 9.24191 21 8.89736 21 7.91038V3.58926C21 2.60228 20.9335 2.25772 20.7442 1.90383C20.5934 1.6218 20.378 1.40645 20.096 1.25562C19.7421 1.06635 19.3975 0.999817 18.4106 0.999817H3.58944ZM24.5 5.68982C24.5 6.92639 23 7.68982 23 7.68982V3.68982C23 3.68982 24.5 4.45325 24.5 5.68982Z" fill="black" fill-opacity="0.36"/>
<rect x="2" y="1.9165" width="18" height="7.66667" rx="1.6" fill="black"/>
</svg>
