<svg width="18" height="12" viewBox="0 0 18 12" fill="none" xmlns="http://www.w3.org/2000/svg">
<path fill-rule="evenodd" clip-rule="evenodd" d="M14.623 1.40571C14.6 1.52163 14.6 1.66103 14.6 1.93982V9.63982C14.6 9.91861 14.6 10.058 14.623 10.1739C14.7177 10.65 15.0899 11.0221 15.5659 11.1168C15.6818 11.1398 15.8212 11.1398 16.1 11.1398C16.3788 11.1398 16.5182 11.1398 16.6341 11.1168C17.1101 11.0221 17.4822 10.65 17.5769 10.1739C17.6 10.058 17.6 9.91861 17.6 9.63982V1.93982C17.6 1.66103 17.6 1.52163 17.5769 1.40571C17.4822 0.929682 17.1101 0.557565 16.6341 0.462877C16.5182 0.439819 16.3788 0.439819 16.1 0.439819C15.8212 0.439819 15.6818 0.439819 15.5659 0.462877C15.0899 0.557565 14.7177 0.929682 14.623 1.40571ZM9.89999 4.33982C9.89999 4.06103 9.89999 3.92163 9.92305 3.80571C10.0177 3.32968 10.3899 2.95757 10.8659 2.86288C10.9818 2.83982 11.1212 2.83982 11.4 2.83982C11.6788 2.83982 11.8182 2.83982 11.9341 2.86288C12.4101 2.95757 12.7822 3.32968 12.8769 3.80571C12.9 3.92163 12.9 4.06103 12.9 4.33982V9.63982C12.9 9.91862 12.9 10.058 12.8769 10.1739C12.7822 10.65 12.4101 11.0221 11.9341 11.1168C11.8182 11.1398 11.6788 11.1398 11.4 11.1398C11.1212 11.1398 10.9818 11.1398 10.8659 11.1168C10.3899 11.0221 10.0177 10.65 9.92305 10.1739C9.89999 10.058 9.89999 9.91862 9.89999 9.63982V4.33982ZM5.32305 6.10572C5.29999 6.22163 5.29999 6.36103 5.29999 6.63982V9.63982C5.29999 9.91862 5.29999 10.058 5.32305 10.1739C5.41773 10.65 5.78985 11.0221 6.26588 11.1168C6.3818 11.1398 6.52119 11.1398 6.79999 11.1398C7.07878 11.1398 7.21818 11.1398 7.3341 11.1168C7.81012 11.0221 8.18224 10.65 8.27693 10.1739C8.29999 10.058 8.29999 9.91862 8.29999 9.63982V6.63982C8.29999 6.36103 8.29999 6.22163 8.27693 6.10572C8.18224 5.62969 7.81012 5.25757 7.3341 5.16288C7.21818 5.13982 7.07878 5.13982 6.79999 5.13982C6.52119 5.13982 6.3818 5.13982 6.26588 5.16288C5.78985 5.25757 5.41773 5.62969 5.32305 6.10572ZM0.523058 8.10572C0.5 8.22163 0.5 8.36103 0.5 8.63982V9.63982C0.5 9.91862 0.5 10.058 0.523058 10.1739C0.617746 10.65 0.989863 11.0221 1.46589 11.1168C1.58181 11.1398 1.72121 11.1398 2 11.1398C2.27879 11.1398 2.41819 11.1398 2.53411 11.1168C3.01014 11.0221 3.38225 10.65 3.47694 10.1739C3.5 10.058 3.5 9.91862 3.5 9.63982V8.63982C3.5 8.36103 3.5 8.22163 3.47694 8.10572C3.38225 7.62969 3.01014 7.25757 2.53411 7.16288C2.41819 7.13982 2.27879 7.13982 2 7.13982C1.72121 7.13982 1.58181 7.13982 1.46589 7.16288C0.989863 7.25757 0.617746 7.62969 0.523058 8.10572Z" fill="black"/>
</svg>
