<svg width="16" height="12" viewBox="0 0 16 12" fill="none" xmlns="http://www.w3.org/2000/svg">
<path fill-rule="evenodd" clip-rule="evenodd" d="M8.3004 2.53617C10.5348 2.53627 12.6838 3.39482 14.3031 4.93438C14.4251 5.05324 14.62 5.05174 14.7401 4.93101L15.9058 3.7546C15.9666 3.69337 16.0005 3.61043 16 3.52413C15.9995 3.43784 15.9646 3.3553 15.9031 3.29479C11.6527 -0.77852 4.94737 -0.77852 0.697047 3.29479C0.635477 3.35526 0.600547 3.43777 0.599983 3.52406C0.599408 3.61036 0.633259 3.69332 0.694022 3.7546L1.86003 4.93101C1.98004 5.05192 2.17511 5.05342 2.29698 4.93438C3.91655 3.39472 6.06577 2.53616 8.3004 2.53617ZM8.3004 6.36355C9.52806 6.36348 10.7119 6.81979 11.6219 7.64383C11.745 7.76078 11.9389 7.75825 12.0589 7.63812L13.2232 6.4617C13.2845 6.39999 13.3185 6.31628 13.3177 6.2293C13.3168 6.14231 13.281 6.05931 13.2185 5.99886C10.4473 3.42112 6.15582 3.42112 3.38466 5.99886C3.32206 6.05931 3.28635 6.14235 3.28553 6.22937C3.2847 6.31638 3.31885 6.40008 3.38028 6.4617L4.54427 7.63812C4.66425 7.75825 4.85814 7.76078 4.98122 7.64383C5.89063 6.82034 7.07354 6.36406 8.3004 6.36355ZM10.5379 9.17115C10.6002 9.11004 10.6345 9.02594 10.6327 8.93871C10.6309 8.85148 10.5932 8.76886 10.5285 8.71034C9.2423 7.62244 7.35849 7.62244 6.07226 8.71034C6.00751 8.76881 5.96974 8.85141 5.9679 8.93864C5.96605 9.02587 6.00029 9.11 6.06251 9.17115L8.07688 11.2037C8.13592 11.2634 8.2164 11.297 8.3004 11.297C8.38439 11.297 8.46487 11.2634 8.52391 11.2037L10.5379 9.17115Z" fill="black"/>
</svg>
